<?xml version="1.0" encoding="UTF-8" standalone="no"?><!DOCTYPE svg PUBLIC "-//W3C//DTD SVG 1.1//EN" "http://www.w3.org/Graphics/SVG/1.1/DTD/svg11.dtd"><svg width="100%" height="100%" viewBox="0 0 800 600" version="1.1" xmlns="http://www.w3.org/2000/svg" xmlns:xlink="http://www.w3.org/1999/xlink" xml:space="preserve" xmlns:serif="http://www.serif.com/" style="fill-rule:evenodd;clip-rule:evenodd;stroke-linejoin:round;stroke-miterlimit:2;"><g id="moon-draft"><path d="M44.825,258.117l1.634,0.481c-9.655,32.032 -15.687,51.899 -15.687,51.899c-0.002,0.005 -0.004,0.011 -0.005,0.017c-0.014,0.049 -0.064,0.077 -0.111,0.062c-0.048,-0.014 -0.075,-0.066 -0.061,-0.114c0.002,-0.006 0.004,-0.012 0.005,-0.018c0,0 5.423,-20.048 14.225,-52.327Zm3.776,-13.841c3.585,-13.128 7.596,-27.792 11.929,-43.591c1.017,0.32 2.037,0.629 3.06,0.927c-4.701,15.682 -9.074,30.231 -12.993,43.251l-1.996,-0.587Zm194.758,-244.276c2.717,9.169 4.594,18.725 5.536,28.562c5.533,0.914 11.058,1.827 16.568,2.739c37.609,6.22 74.535,12.357 109.723,18.251c51.358,8.603 99.023,16.624 139.713,23.488c-0.272,0.974 -0.447,1.992 -0.512,3.04c-40.767,-6.429 -88.478,-13.974 -139.871,-22.14c-35.233,-5.598 -72.192,-11.519 -109.826,-17.578c-5.114,-0.823 -10.24,-1.649 -15.378,-2.477c0.066,1.09 0.121,2.183 0.164,3.279c27.273,4.56 43.918,7.354 43.918,7.354c0.165,0.027 0.278,0.188 0.252,0.358c-0.026,0.171 -0.182,0.288 -0.347,0.261c0,0 -16.587,-2.629 -43.786,-6.959c0.056,1.693 0.084,3.4 0.084,5.114c0,53.162 -27.196,99.81 -67.976,125.875c0.776,2.527 1.377,5.022 2.188,7.467c3.147,-1.95 6.219,-4.017 9.212,-6.193l1.451,2.149c-3.159,2.305 -6.406,4.49 -9.733,6.546c0.507,1.187 1.103,2.31 1.658,3.44c8.075,16.445 14.86,29.092 14.86,29.092c0.005,0.009 0.01,0.019 0.015,0.028c0.103,0.184 0.042,0.42 -0.136,0.526c-0.178,0.107 -0.406,0.044 -0.509,-0.14c-0.005,-0.009 -0.011,-0.018 -0.016,-0.027c0,-0 -7.233,-12.379 -17.009,-27.806c-0.671,-1.058 -1.316,-2.149 -2.056,-3.193c-3.327,1.945 -6.732,3.764 -10.207,5.452l-1.086,-2.415c3.284,-1.59 6.503,-3.298 9.653,-5.121c-1.646,-1.942 -3.439,-3.722 -5.17,-5.673c-20.286,11.405 -43.528,17.885 -68.221,17.885c-42.288,-0 -80.316,-19.003 -106.515,-49.185l-0,-79.454c21.365,15.25 52.933,13.308 80.922,-3.838c6.342,-3.885 12.499,-8.551 18.314,-13.975c6.19,6.677 11.789,12.693 16.527,17.727c9.493,10.087 15.503,16.246 15.503,16.246l3.865,-1.432l2.48,-2.563l1.385,-3.994c0,-0 -5.959,-6.213 -15.717,-16.024c-4.853,-4.879 -10.647,-10.641 -17.077,-17.01c10.521,-11.552 18.273,-24.518 23.09,-37.682l114.067,-0Zm-188.828,189.174c6.55,2.492 13.313,4.525 20.253,6.062l-0.547,2.636c-7.057,-1.575 -13.933,-3.654 -20.591,-6.199l0.885,-2.499Zm2.125,-13.688c15.894,6.44 32.802,9.745 49.859,9.745c4.409,-0 8.816,-0.221 13.204,-0.662l-0.161,-1.737c-4.335,0.435 -8.688,0.653 -13.043,0.653c-16.849,0 -33.55,-3.264 -49.25,-9.625l-0.609,1.626Zm186.431,-9.626l5.848,4.617c-0.721,0.868 -1.448,1.728 -2.182,2.581l-5.488,-5.078c0.613,-0.702 1.221,-1.409 1.822,-2.12Zm1.304,-1.556c15.107,-18.228 26.906,-39.478 34.401,-62.755l6.368,2.153c-7.521,24.133 -19.496,46.22 -34.936,65.207l-5.833,-4.605Zm-42.927,-14.624c28.854,-27.619 45.272,-66.542 45.272,-107.329c-0,-2.523 -0.063,-5.046 -0.189,-7.565l-6.104,0.329c0.121,2.41 0.181,4.823 0.181,7.236c-0,39.009 -15.703,76.236 -43.298,102.65l4.138,4.679Zm-2.88,-11.56c24.418,-25.399 38.136,-59.848 38.136,-95.769c-0,-1.367 -0.02,-2.734 -0.06,-4.1l-12.558,0.396c0.036,1.234 0.054,2.469 0.054,3.704c0,32.455 -12.394,63.58 -34.456,86.528l8.884,9.241Zm343.586,-60.477c65.552,11.072 107.229,18.164 107.229,18.164c0,-0 0,0 0.001,0c0.387,0.063 0.652,0.44 0.591,0.841c-0.061,0.401 -0.426,0.675 -0.813,0.612c-0.001,-0 -0.001,-0.001 -0.001,-0.001c-0,0 -41.735,-6.52 -107.381,-16.859c0.209,-0.89 0.336,-1.812 0.374,-2.757Zm-339.718,11.307c6.55,-14.59 9.944,-30.497 9.944,-46.599c-0,-7.722 -0.781,-15.423 -2.33,-22.976l-3.475,0.772c1.496,7.299 2.251,14.741 2.251,22.204c0,15.562 -3.28,30.934 -9.61,45.035l3.22,1.564Zm327.009,-13.453l2.098,0.354c0.123,0.367 0.19,0.761 0.19,1.172c-0,0.625 -0.155,1.214 -0.428,1.727l-6.461,-1.019c-0.045,-0.229 -0.068,-0.466 -0.068,-0.708c0,-0.825 0.269,-1.586 0.723,-2.192l3.946,0.666Zm-471.638,-75.497c11.959,12.872 23.772,25.672 34.324,37.077c-29.524,26.922 -67.106,35.703 -92.147,20.504l-0,-57.581l57.823,0Zm234.941,20.627c0.429,3.612 0.762,7.255 0.995,10.925l-6.005,0.377c-0.186,-3.559 -0.467,-7.092 -0.842,-10.589l5.852,-0.713Zm-172.714,-20.627c-5.066,10.587 -12.161,20.954 -21.155,30.453c-9.531,-9.421 -20.075,-19.821 -30.804,-30.453l51.959,0Zm171.361,11.161c0.246,1.471 0.476,2.947 0.69,4.428l-5.775,0.862c-0.191,-1.437 -0.397,-2.87 -0.62,-4.299l5.705,-0.991Zm-38.136,-11.161c0.899,3.228 1.702,6.502 2.403,9.815l-1.853,0.404c-0.714,-3.449 -1.539,-6.856 -2.472,-10.219l1.922,0Z"/></g></svg>