<?xml version="1.0" encoding="UTF-8" standalone="no"?>
<!DOCTYPE svg PUBLIC "-//W3C//DTD SVG 1.1//EN" "http://www.w3.org/Graphics/SVG/1.1/DTD/svg11.dtd">
<svg width="100%" height="100%" viewBox="0 0 1000 1000" version="1.1" xmlns="http://www.w3.org/2000/svg" xmlns:xlink="http://www.w3.org/1999/xlink" xml:space="preserve" xmlns:serif="http://www.serif.com/" style="fill-rule:evenodd;clip-rule:evenodd;stroke-linejoin:round;stroke-miterlimit:2;">
    <path id="anytime" d="M562.5,837.879C562.5,828.584 554.953,821.037 545.658,821.037L454.342,821.037C445.047,821.037 437.5,828.584 437.5,837.879L437.5,929.196C437.5,938.491 445.047,946.037 454.342,946.037L545.658,946.037C554.953,946.037 562.5,938.491 562.5,929.196L562.5,837.879ZM568.937,56.048C568.937,52.254 565.857,49.174 562.063,49.174L437.937,49.174C434.143,49.174 431.063,52.254 431.063,56.048L439.024,689.163C439.024,692.957 442.105,696.037 445.899,696.037L554.101,696.037C557.895,696.037 560.976,692.957 560.976,689.163L568.937,56.048Z"/>
</svg>
