<?xml version="1.0" encoding="UTF-8" standalone="no"?>
<!DOCTYPE svg PUBLIC "-//W3C//DTD SVG 1.1//EN" "http://www.w3.org/Graphics/SVG/1.1/DTD/svg11.dtd">
<svg width="100%" height="100%" viewBox="0 0 1000 1000" version="1.1" xmlns="http://www.w3.org/2000/svg" xmlns:xlink="http://www.w3.org/1999/xlink" xml:space="preserve" xmlns:serif="http://www.serif.com/" style="fill-rule:evenodd;clip-rule:evenodd;stroke-linejoin:round;stroke-miterlimit:2;">
    <g transform="matrix(6.70431,0,0,6.68754,-2838.17,-1620.08)">
        <path d="M477.211,285.275C477.344,284.723 477.782,284.296 478.338,284.177C478.893,284.059 479.468,284.27 479.814,284.72L500.545,311.642L534.42,308.983C534.986,308.939 535.528,309.224 535.812,309.715C536.097,310.207 536.074,310.819 535.753,311.287L516.555,339.323L529.551,370.718C529.768,371.243 529.665,371.846 529.285,372.269C528.905,372.691 528.316,372.858 527.771,372.698L495.175,363.103L469.333,385.165C468.901,385.534 468.295,385.622 467.776,385.391C467.257,385.16 466.916,384.652 466.9,384.084L465.953,350.118L436.985,332.358C436.501,332.061 436.23,331.513 436.289,330.947C436.348,330.382 436.726,329.901 437.261,329.711L469.272,318.314L477.211,285.275ZM438.029,319.15C437.708,318.936 437.544,318.442 437.542,317.787C437.541,317.705 437.541,317.623 437.541,317.541C437.541,284.173 464.632,257.083 498,257.083C531.368,257.083 558.459,284.173 558.459,317.541C558.459,335.282 550.801,351.248 538.614,362.311C538.242,362.649 537.916,362.625 537.634,362.564C537.351,362.503 536.92,361.946 536.92,361.946L532.459,351.17C532.459,351.17 532.151,350.279 532.227,349.889C532.302,349.498 532.588,349.186 532.91,348.827C540.355,340.527 544.886,329.559 544.886,317.541C544.886,291.664 523.877,270.655 498,270.655C473.432,270.655 453.252,289.592 451.273,313.653C451.239,314.069 451.239,314.48 451.038,314.755C450.837,315.03 450.066,315.304 450.066,315.304L439.469,319.076C439.469,319.076 438.35,319.365 438.029,319.15Z"/>
    </g>
</svg>
