<?xml version="1.0" encoding="UTF-8" standalone="no"?>
<!DOCTYPE svg PUBLIC "-//W3C//DTD SVG 1.1//EN" "http://www.w3.org/Graphics/SVG/1.1/DTD/svg11.dtd">
<svg width="100%" height="100%" viewBox="0 0 1000 1000" version="1.1" xmlns="http://www.w3.org/2000/svg" xmlns:xlink="http://www.w3.org/1999/xlink" xml:space="preserve" xmlns:serif="http://www.serif.com/" style="fill-rule:evenodd;clip-rule:evenodd;stroke-linejoin:round;stroke-miterlimit:2;">
    <path id="free" d="M430.467,900.901C431.72,902.442 434.478,903.763 436.987,904.158C479.84,910.909 523.507,910.731 566.317,903.624C567.723,903.39 568.83,902.694 569.533,901.901C570.236,901.108 570.533,898.866 570.533,898.866L570.533,817.722C570.533,817.722 569.843,813.519 568.533,812.62C567.223,811.72 565.299,811.789 562.674,812.323C520.651,820.869 477.315,820.731 435.335,811.911C433.376,811.499 431.445,811.699 430.467,812.62C429.489,813.541 429.467,817.437 429.467,817.437L429.467,894.912C429.467,894.912 429.214,899.36 430.467,900.901ZM210.532,784.255C210.64,786.238 212.094,788.927 213.892,790.722C244.593,821.372 280.025,846.894 318.836,866.308C320.111,866.946 321.416,867.033 322.451,866.804C323.485,866.576 325.043,864.937 325.043,864.937L372.739,799.29C372.739,799.29 374.651,795.484 374.12,793.986C373.589,792.488 371.992,791.413 369.554,790.302C330.534,772.516 295.555,746.933 266.777,715.121C265.434,713.637 263.755,712.663 262.422,712.833C261.09,713.004 258.782,716.143 258.782,716.143L213.243,778.821C213.243,778.821 210.424,782.271 210.532,784.255ZM676.962,865.995C678.881,866.505 681.888,865.953 684.151,864.798C722.787,845.071 758.01,819.26 788.467,788.348C789.467,787.332 789.954,786.118 790.056,785.064C790.158,784.009 789.081,782.021 789.081,782.021L741.386,716.373C741.386,716.373 738.357,713.379 736.769,713.421C735.18,713.463 733.664,714.65 731.854,716.625C702.88,748.239 667.74,773.6 628.593,791.14C626.766,791.958 625.321,793.254 625.071,794.574C624.821,795.894 627.094,799.06 627.094,799.06L672.632,861.738C672.632,861.738 675.042,865.485 676.962,865.995ZM101.164,560.611C100.085,562.279 99.681,565.309 100.08,567.818C106.903,610.66 120.566,652.134 140.554,690.653C141.21,691.918 142.215,692.756 143.186,693.179C144.157,693.602 146.381,693.192 146.381,693.192L223.554,668.117C223.554,668.117 227.338,666.163 227.789,664.639C228.24,663.115 227.579,661.306 226.261,658.975C205.147,621.649 191.886,580.392 187.302,537.741C187.088,535.751 186.302,533.976 185.124,533.33C183.946,532.685 180.233,533.868 180.233,533.868L106.551,557.809C106.551,557.809 102.242,558.943 101.164,560.611ZM855.863,692.87C857.716,692.154 859.824,689.94 860.975,687.676C880.638,649.006 893.962,607.422 900.432,564.511C900.645,563.101 900.325,561.833 899.788,560.92C899.251,560.007 897.21,559.031 897.21,559.031L820.037,533.956C820.037,533.956 815.827,533.314 814.567,534.281C813.306,535.249 812.777,537.101 812.474,539.762C807.616,582.369 794.094,623.541 772.732,660.741C771.736,662.477 771.328,664.375 771.902,665.59C772.476,666.804 776.175,668.03 776.175,668.03L849.858,691.97C849.858,691.97 854.01,693.586 855.863,692.87ZM898.836,447.654C899.915,445.985 900.319,442.955 899.92,440.446C893.097,397.605 879.434,356.13 859.446,317.611C858.79,316.346 857.785,315.508 856.814,315.085C855.843,314.662 853.619,315.072 853.619,315.072L776.446,340.147C776.446,340.147 772.662,342.102 772.211,343.626C771.76,345.15 772.421,346.958 773.739,349.29C794.853,386.615 808.114,427.872 812.698,470.524C812.912,472.514 813.698,474.289 814.876,474.934C816.054,475.58 819.767,474.396 819.767,474.396L893.449,450.455C893.449,450.455 897.758,449.322 898.836,447.654ZM144.137,315.394C142.284,316.11 140.176,318.324 139.025,320.589C119.362,359.258 106.038,400.843 99.568,443.754C99.355,445.163 99.675,446.431 100.212,447.345C100.749,448.258 102.79,449.233 102.79,449.233L179.963,474.308C179.963,474.308 184.173,474.951 185.433,473.983C186.694,473.015 187.223,471.164 187.526,468.502C192.384,425.895 205.906,384.723 227.268,347.523C228.264,345.787 228.672,343.889 228.098,342.675C227.524,341.46 223.825,340.235 223.825,340.235L150.142,316.294C150.142,316.294 145.99,314.678 144.137,315.394ZM789.468,224.01C789.36,222.026 787.906,219.337 786.108,217.542C755.407,186.893 719.975,161.37 681.164,141.957C679.889,141.319 678.584,141.232 677.549,141.46C676.515,141.689 674.957,143.328 674.957,143.328L627.261,208.975C627.261,208.975 625.349,212.78 625.88,214.278C626.411,215.776 628.008,216.851 630.446,217.962C669.466,235.749 704.445,261.332 733.223,293.143C734.566,294.628 736.245,295.601 737.578,295.431C738.91,295.261 741.218,292.121 741.218,292.121L786.757,229.443C786.757,229.443 789.576,225.993 789.468,224.01ZM322.979,142.298C321.059,141.788 318.052,142.341 315.79,143.496C277.157,163.23 241.938,189.047 211.487,219.964C210.486,220.98 210,222.194 209.898,223.248C209.796,224.303 210.873,226.291 210.873,226.291L258.58,291.931C258.58,291.931 261.608,294.924 263.197,294.882C264.786,294.84 266.302,293.653 268.111,291.678C297.08,260.059 332.216,234.692 371.36,217.146C373.187,216.327 374.632,215.031 374.881,213.711C375.131,212.391 372.858,209.226 372.858,209.226L327.309,146.555C327.309,146.555 324.899,142.808 322.979,142.298ZM569.533,107.363C568.28,105.822 565.522,104.501 563.013,104.106C520.16,97.356 476.493,97.534 433.683,104.641C432.277,104.874 431.17,105.57 430.467,106.363C429.764,107.156 429.467,109.398 429.467,109.398L429.467,190.543C429.467,190.543 430.157,194.745 431.467,195.645C432.777,196.545 434.701,196.476 437.326,195.942C479.349,187.396 522.685,187.533 564.665,196.353C566.624,196.765 568.555,196.566 569.533,195.645C570.511,194.724 570.533,190.827 570.533,190.827L570.533,113.353C570.533,113.353 570.786,108.904 569.533,107.363Z"/>
</svg>
