<?xml version="1.0" encoding="UTF-8" standalone="no"?>
<!DOCTYPE svg PUBLIC "-//W3C//DTD SVG 1.1//EN" "http://www.w3.org/Graphics/SVG/1.1/DTD/svg11.dtd">
<svg width="100%" height="100%" viewBox="0 0 1000 1000" version="1.1" xmlns="http://www.w3.org/2000/svg" xmlns:xlink="http://www.w3.org/1999/xlink" xml:space="preserve" xmlns:serif="http://www.serif.com/" style="fill-rule:evenodd;clip-rule:evenodd;stroke-linejoin:round;stroke-miterlimit:2;">
    <path id="move" d="M500,818L500,645.868L108.085,645.868C108.085,645.868 99.215,645.942 97.041,643.868C94.867,641.794 95.041,633.425 95.041,633.425L95.041,373.699C95.041,373.699 95.096,366.28 97.041,364.397C98.987,362.513 106.714,362.397 106.714,362.397L500,362.397L500,118.537C500,118.537 499.68,105.081 502,104.174C504.32,103.266 513.918,113.091 513.918,113.091L891.192,490.365C891.192,490.365 901.012,499.49 900.959,504.132C900.906,508.774 890.873,518.218 890.873,518.218L591.091,818L898.962,818C902.271,818 904.959,820.687 904.959,823.997L904.959,903.094C904.959,906.404 902.271,909.091 898.962,909.091L101.038,909.091C97.729,909.091 95.041,906.404 95.041,903.094L95.041,823.997C95.041,820.687 97.729,818 101.038,818L500,818Z"/>
</svg>
