<?xml version="1.0" encoding="UTF-8" standalone="no"?>
<!DOCTYPE svg PUBLIC "-//W3C//DTD SVG 1.1//EN" "http://www.w3.org/Graphics/SVG/1.1/DTD/svg11.dtd">
<svg width="100%" height="100%" viewBox="0 0 1000 1000" version="1.1" xmlns="http://www.w3.org/2000/svg" xmlns:xlink="http://www.w3.org/1999/xlink" xml:space="preserve" xmlns:serif="http://www.serif.com/" style="fill-rule:evenodd;clip-rule:evenodd;stroke-linejoin:round;stroke-miterlimit:2;">
    <path id="swift" d="M793.415,858.293C798.919,847.305 815.123,646.25 782.422,596.104C737.097,526.6 677.496,540.832 619.647,500C574.042,467.811 521.124,390.579 508.968,367.938C482.394,318.441 474.451,420.897 482.343,438.917C445.325,388.626 233.632,187.642 161.388,152.36C137.618,140.751 115.784,125.164 159.211,235.096C172.989,269.973 198.129,361.107 218.528,382.643C218.528,382.643 129.273,329.204 110.586,322.393C87.027,313.807 87.392,322.102 98.505,363.618C103.838,383.542 113.588,409.241 125.892,436.323C146.51,481.707 174.302,530.973 200.498,563.449C58.824,567.73 94.954,593.888 143.101,615.635C197.013,639.985 262.153,673.206 302.79,756.081C314.749,780.471 361.259,842.626 402.15,864.551C466.603,899.11 514.138,871.25 543.513,876.433C572.889,881.617 605.152,931.38 617.162,933.978C650.852,941.266 781.968,881.146 793.415,858.293ZM430.051,813.948C430.911,813.289 427.727,806.242 417.966,788.492C393.775,744.499 360.049,669.804 382.444,642.242C403.281,616.598 431.355,648.514 448.498,661.879C456.911,668.438 456.71,668.793 457.422,667.385C458.134,665.977 457.41,665.527 452.77,653.431C445.937,635.619 439.768,610.699 451.034,596.354C461.305,583.276 475.435,593.163 482.861,598.415C491.872,604.789 493.771,608.038 493.601,606.836C493.43,605.634 492.862,601.068 486.605,593.986C472.522,578.047 448.698,559.347 434.724,570.233C421.49,580.543 421.015,596.108 423.729,613.11C423.729,613.11 357.456,568.565 337.161,614.584C316.885,660.558 379.112,758.098 413.816,799.934C426.85,815.646 429.191,814.606 430.051,813.948ZM814.054,523.799C812.374,518.947 813.626,512.209 813.671,506.397C813.677,505.598 813.68,504.799 813.68,504C813.68,330.875 673.125,190.32 500,190.32C458.85,190.32 418.24,198.415 380.437,214.001C377.447,215.234 374.222,216.305 371.521,215.84C368.819,215.375 366.668,213.422 364.23,211.21C345.839,194.527 327.051,177.797 308.742,161.899C305.223,158.843 302.841,155.528 303.245,152.831C303.649,150.134 306.82,148.007 311.165,145.718C369.313,115.07 434.121,99 500,99C723.526,99 905,280.474 905,504C905,541.968 900.661,564.679 890.196,601.034C888.009,608.63 885.886,610.677 882.966,610.634C882.039,610.62 877.482,605.143 871.138,597.005C857.511,579.527 835.636,549.775 823.751,535.511C820.251,531.31 815.734,528.651 814.054,523.799Z"/>
</svg>
